<?xml version="1.0" encoding="UTF-8"?>
<svg xmlns="http://www.w3.org/2000/svg" width="98" height="40" viewBox="0 0 98 40" fill="none">
  <path d="M13.1971 16.8257C13.1971 14.73 13.1971 12.6223 13.1971 10.5265C13.1971 9.62837 13.7839 8.99367 14.6222 8.98169C15.5084 8.96971 16.1071 9.58047 16.1071 10.5026C16.1071 11.8558 16.1071 13.2091 16.1071 14.5623C16.1071 14.6701 16.0473 14.8258 16.179 14.8856C16.3107 14.9455 16.3826 14.8018 16.4784 14.73C18.8496 12.9336 21.2207 11.1253 23.5919 9.32898C24.3344 8.76613 25.2206 8.84996 25.7116 9.53257C26.2385 10.2391 26.0828 11.0894 25.3283 11.6642C22.7895 13.5923 20.2627 15.5323 17.7119 17.4484C17.4245 17.664 17.4843 17.7478 17.7598 17.8915C20.2268 19.1969 22.6698 20.5261 25.1487 21.8075C26.2984 22.3943 26.3343 23.6757 25.5798 24.2985C25.1367 24.6577 24.4781 24.7176 23.9152 24.4302C21.8315 23.3284 19.7477 22.2267 17.664 21.1249C17.2568 20.9094 16.8377 20.7297 16.4425 20.5022C16.1191 20.3226 16.0952 20.4782 16.0952 20.7417C16.0952 21.5441 16.0952 22.3464 16.0832 23.1488C16.0832 23.7835 15.8078 24.2865 15.221 24.526C14.6701 24.7535 14.1192 24.6817 13.6402 24.2745C13.3168 23.9991 13.1851 23.6518 13.1851 23.2326C13.1971 21.089 13.1971 18.9573 13.1971 16.8257Z" fill="#3EAFF8"></path>
  <path d="M28.1066 14.7301C28.1066 13.2931 28.0947 11.868 28.1066 10.4309C28.1066 9.74828 28.5258 9.19741 29.1126 9.02975C29.7593 8.83814 30.406 9.07765 30.7772 9.61655C30.9568 9.88002 30.9808 10.1794 30.9808 10.4788C30.9808 12.9098 30.9688 15.3409 30.9808 17.7719C30.9808 18.3228 30.9928 18.8857 31.1365 19.4126C31.4718 20.6221 32.358 21.2927 33.4957 21.6281C34.9567 22.0472 36.3099 21.7837 37.4716 20.7658C37.9865 20.3108 38.2979 19.7599 38.3697 19.0653C38.4296 18.5264 38.4775 17.9995 38.4775 17.4606C38.4775 15.1014 38.4775 12.7302 38.4775 10.371C38.4775 9.71236 38.9326 9.16148 39.5433 9.04172C40.2499 8.89802 40.9205 9.20938 41.184 9.82014C41.3157 10.1315 41.3277 10.4548 41.3277 10.7902C41.3277 12.6344 41.3277 14.4667 41.3277 16.3109C41.3277 17.1372 41.3397 17.9635 41.2918 18.7899C41.1481 21.1251 40.0343 22.8017 37.9985 23.8914C35.3758 25.2926 32.0346 24.8255 29.891 22.7777C28.6575 21.6041 28.1545 20.1191 28.1426 18.4545C28.1306 17.2211 28.1426 15.9876 28.1426 14.7541C28.1186 14.7301 28.1066 14.7301 28.1066 14.7301Z" fill="#3EAFF8"></path>
  <path d="M7.26918 17.7598C7.08955 18.2747 7.12547 18.8017 7.07757 19.4004C6.98176 19.0052 7.05362 18.658 6.88596 18.3466C6.88596 18.7897 6.88596 19.2328 6.88596 19.6759C6.86201 19.6759 6.83806 19.6759 6.82608 19.6759C6.80213 19.2088 6.77818 18.7298 6.75423 18.155C6.6704 19.0052 6.69435 19.7597 6.58657 20.5022C6.58657 19.7238 6.58657 18.9454 6.58657 18.167C6.56262 18.167 6.53867 18.167 6.51472 18.167C6.44286 18.5622 6.37101 18.9573 6.29916 19.3525C6.2752 19.3525 6.26323 19.3525 6.23928 19.3525C6.2273 19.2208 6.21533 19.1011 6.19138 18.9214C6.1315 19.2567 6.0836 19.5322 6.03569 19.8076C6.02372 19.8076 6.01174 19.8076 5.99977 19.8076C5.99977 19.5681 5.99977 19.3286 5.99977 19.0651C5.83211 19.137 5.93989 19.2927 5.84408 19.3645C5.79618 19.149 5.86804 18.9094 5.67643 18.6699C5.54469 19.2567 5.42494 19.8076 5.30518 20.4064C5.25728 19.7597 5.46087 19.1969 5.46087 18.5981C5.34111 19.0412 5.22135 19.4843 5.11357 19.9154C5.0537 19.4723 5.23333 19.0771 5.20938 18.634C5.04172 19.1609 4.88604 19.6879 4.71838 20.2148C4.7064 20.2148 4.68245 20.2028 4.67048 20.2028C4.77826 19.6879 4.89801 19.1849 5.00579 18.6699C4.99382 18.6699 4.98184 18.658 4.96987 18.658C4.88604 18.8256 4.80221 18.9933 4.71838 19.1849C4.6106 19.0412 4.79023 18.9094 4.67048 18.7777C4.46689 18.8735 4.45492 19.113 4.32319 19.2567C4.2154 19.149 4.39504 19.0292 4.26331 18.8975C3.82021 19.1609 3.82021 19.7238 3.48489 20.0711C3.77231 19.6879 3.50885 19.2088 3.74836 18.7897C3.50885 18.8136 3.34119 18.7657 3.32921 18.4783C3.17353 18.658 3.02982 18.8017 2.88612 18.9573C2.80229 18.7657 3.1376 18.646 2.93402 18.5023C2.74241 18.3705 2.61068 18.5861 2.45499 18.6699C2.37117 18.7178 2.28734 18.7777 2.1556 18.8735C2.20351 18.622 2.40709 18.5023 2.51487 18.2388C2.34721 18.3705 2.23943 18.4424 2.13165 18.5262C2.0119 18.4184 2.22746 18.3825 2.17956 18.2867C2.04783 18.2747 1.95202 18.5143 1.85622 18.3945C1.70053 18.2268 2.02387 18.1789 2.0119 18.0113C1.77239 18.0352 1.65263 18.3226 1.37719 18.2747C1.40114 18.0831 1.62868 18.0711 1.73646 17.7837C1.18558 18.2628 0.562852 18.0712 0 18.3705C0.311365 17.8795 0.682608 17.5921 1.0778 17.3167C1.30534 17.161 1.473 17.149 1.72448 17.2329C2.80229 17.6281 3.91602 17.7957 5.0537 17.5682C6.94584 17.1969 8.26315 15.7838 8.59847 13.8078C8.7781 12.73 8.6823 11.6642 8.40686 10.6104C8.37093 10.4667 8.32303 10.311 8.335 10.1433C8.67032 10.7421 9.13737 11.3169 9.30503 11.9636C9.41281 12.3947 9.53256 12.8019 9.68825 13.2091C9.61639 13.1492 9.53256 13.0893 9.47268 13.0294C9.32898 13.0414 9.34095 13.0773 9.73615 14.1072C9.62837 13.9755 9.52059 13.8438 9.40083 13.6881C9.25712 14.2629 9.60442 14.706 9.78405 15.2808C9.64034 15.1012 9.55651 15.0054 9.44873 14.8617C9.34095 15.3048 9.34095 15.7 9.50861 16.0832C9.43676 15.9754 9.3649 15.8796 9.28107 15.7599C8.69427 16.2269 9.32898 16.658 9.29305 17.1371C9.24515 17.0652 9.2212 17.0293 9.18527 16.9814C9.11342 16.8736 9.13737 16.682 8.95773 16.658C8.86193 16.6461 8.826 16.7419 8.81403 17.0532C8.65835 16.9694 8.74217 16.7538 8.53859 16.6341C8.64637 17.0772 8.74217 17.4724 8.83798 17.8795C8.826 17.8795 8.826 17.8915 8.81403 17.8915C8.7302 17.664 8.63439 17.4364 8.57452 17.2089C8.53859 17.0892 8.47871 17.0652 8.38291 17.0772C8.22722 17.1011 8.32303 17.2089 8.335 17.2688C8.37093 17.5322 8.41883 17.8077 8.43081 18.0831C8.38291 17.9753 8.335 17.8795 8.27513 17.7598C8.16735 17.9514 8.35896 18.131 8.26315 18.3346C8.17932 18.0712 8.10747 17.8316 8.03561 17.5921C8.01166 17.5921 7.98771 17.6041 7.96376 17.6041C8.02364 18.0711 8.08352 18.5382 8.14339 19.0052C7.90388 18.5622 7.89191 18.0472 7.67635 17.5921C7.67635 17.7478 7.67635 17.8915 7.67635 18.0592C7.54462 17.9993 7.64042 17.8795 7.53264 17.8077C7.52067 18.8017 7.7482 19.7597 7.73623 20.7417C7.56857 19.7597 7.42486 18.7657 7.26918 17.7598Z" fill="#3EAFF8"></path>
  <path d="M23.4961 5.58062C22.9093 5.61655 22.3344 5.50877 21.7836 5.61655C21.7596 5.71235 21.8554 5.67642 21.8674 5.70038C22.0111 5.91594 22.2506 5.82013 22.4542 5.91594C22.2267 5.91594 21.9991 5.91594 21.7596 5.91594C21.7596 5.93989 21.7596 5.95186 21.7596 5.97582C22.071 6.02372 22.3943 6.07162 22.7057 6.1315C22.1309 6.2752 21.568 6.43089 20.9692 6.29915C21.5321 6.49076 22.1189 6.51472 22.6578 6.79015C22.2027 6.7183 21.7476 6.64645 21.2926 6.57459C21.2926 6.58657 21.2806 6.59855 21.2806 6.6225C21.5201 6.69435 21.7716 6.7662 22.0111 6.83806C22.0111 6.85003 22.0111 6.86201 22.0111 6.87398C21.7117 6.83806 21.4243 6.79015 21.1249 6.75423C21.1249 6.7662 21.1129 6.79015 21.1129 6.80213C21.2926 6.86201 21.4722 6.93386 21.6399 6.99374C21.6399 7.00572 21.6399 7.01769 21.6399 7.04164C21.2686 7.00571 20.8974 6.96979 20.5142 6.93386C20.5022 6.96979 20.5022 6.99374 20.4902 7.02966C21.3524 7.34103 22.2267 7.64042 23.0889 7.95179C23.0769 7.97574 23.0769 7.98771 23.0649 8.01166C22.3584 7.7961 21.6399 7.58054 20.9333 7.36498C20.7896 7.32905 20.6579 7.3051 20.5142 7.2572C20.3704 7.2093 20.4303 7.43684 20.2986 7.40091C20.2866 7.49671 20.3704 7.49671 20.4183 7.52066C20.7776 7.68832 21.1369 7.844 21.4842 8.02364C21.053 8.02364 20.7058 7.72425 20.2507 7.71227C20.3824 7.90388 20.598 7.8919 20.7656 8.08351C20.574 8.02364 20.4423 7.98771 20.2986 7.93981C20.2507 8.04759 20.3944 8.04759 20.3824 8.13142C20.3585 8.13142 20.3345 8.15537 20.3225 8.14339C20.2387 8.11944 20.1429 8.08352 20.0591 8.04759C19.4603 7.82005 19.4363 7.82005 19.4244 7.90388C19.4124 8.16734 19.137 8.1913 19.0292 8.34698C18.8735 8.58649 19.2328 8.58649 19.2807 8.7781C19.0412 8.67032 18.8136 8.58649 18.5981 8.47871C18.4783 8.41883 18.3466 8.38291 18.2747 8.47871C18.0831 8.71822 17.8675 8.56254 17.652 8.56254C17.0891 8.58649 16.5862 8.3829 15.9634 8.20327C16.155 8.41883 16.2748 8.56254 16.3826 8.69427C15.9754 8.47871 15.676 8.10747 15.173 7.98771C15.2569 8.13142 15.3407 8.25117 15.4126 8.37093C15.4006 8.38291 15.3886 8.40686 15.3766 8.41883C15.2449 8.32303 15.1251 8.21525 14.9934 8.13142C14.8257 8.03561 14.7299 7.68832 14.4425 7.95179C14.4306 7.96376 14.2988 7.86796 14.227 7.80808C13.724 7.38893 13.233 6.95781 12.7061 6.51472C12.8618 6.49077 12.9695 6.59854 13.0773 6.65842C14.1192 7.17337 15.197 7.50869 16.3706 7.50869C18.8256 7.52066 20.586 5.98779 20.9572 3.55675C21.065 2.82624 21.0531 2.08375 20.9333 1.36522C20.8974 1.14966 20.9453 1.00595 21.1129 0.850267C21.4722 0.514951 21.7836 0.119756 22.3823 0C21.8913 0.419145 22.1428 1.13768 21.6399 1.50892C21.7716 1.41312 21.9033 1.32929 22.035 1.23349C21.8195 1.59275 22.1428 2.0119 21.8794 2.34721C22.047 2.39512 22.1548 2.19153 22.3344 2.26339C22.2147 2.49092 21.8794 2.61068 21.9871 2.94599C22.1189 3.00587 22.2386 2.82624 22.3943 2.91007C22.3464 2.94599 22.2985 2.98192 22.2746 3.01785C22.1548 3.1376 21.8195 3.12563 21.9153 3.32921C22.0111 3.52082 22.1907 3.84416 22.55 3.65255C22.6338 3.60465 22.7536 3.61662 22.9212 3.59267C22.7775 3.6765 22.6937 3.72441 22.6099 3.78428C22.6099 3.79626 22.6219 3.82021 22.6219 3.83218C22.9572 3.78428 23.2805 3.73638 23.6997 3.66453C23.1009 3.96392 22.4422 3.86811 22.0231 4.35911C22.2027 4.34714 22.3823 4.32318 22.5979 4.31121C22.3704 4.50282 22.0949 4.41899 21.9033 4.62257C22.071 4.77826 22.2865 4.64652 22.5021 4.74233C22.2985 4.79023 22.1309 4.82616 21.9752 4.86208C21.9752 4.88604 21.9752 4.89801 21.9871 4.92196C22.3943 4.92196 22.8015 4.92196 23.2206 4.92196C22.6458 5.11357 22.0231 5.04172 21.3764 5.22135C21.9871 5.25728 22.538 5.17345 23.1488 5.28123C22.4542 5.34111 21.8434 5.32913 21.1728 5.44889C21.9752 5.50877 22.7296 5.38901 23.4961 5.58062Z" fill="#3EAFF8"></path>
  <path d="M90.7869 12.8738C89.721 12.8619 88.8588 11.9996 88.8708 10.9338C88.8708 9.86797 89.745 9.00573 90.8108 9.0177C91.8647 9.02968 92.7628 9.92784 92.7509 10.9577C92.7269 11.9757 91.8168 12.8738 90.7869 12.8738ZM90.7988 12.4667C91.6491 12.4667 92.3197 11.7841 92.3197 10.9458C92.3197 10.1195 91.6132 9.40092 90.7988 9.40092C89.9486 9.40092 89.23 10.1195 89.242 10.9577C89.254 11.7721 89.9605 12.4667 90.7988 12.4667Z" fill="#3EAFF8"></path>
  <path d="M56.9918 7.84399C57.6624 8.13141 58.2612 8.55056 58.7761 9.06551C58.1774 8.65834 57.5786 8.25117 56.9918 7.84399Z" fill="#3EAFF8"></path>
  <path d="M25.7355 34.8969C24.2745 34.8969 23.0291 33.5676 23.0291 32.0347C23.0291 30.5617 24.3104 29.2684 25.7595 29.2804C27.2205 29.2923 28.4899 30.5857 28.5019 32.0826C28.5258 33.5676 27.2085 34.8969 25.7355 34.8969Z" fill="#3EAFF8"></path>
  <path d="M89.8887 10.9338C89.8887 9.91584 89.8887 9.91583 90.9066 9.93978C91.1701 9.93978 91.4336 9.95176 91.5294 10.2392C91.6132 10.5146 91.6012 10.79 91.3258 10.9697C91.206 11.0535 91.1701 11.1254 91.2899 11.2451C91.3737 11.3409 91.4575 11.4487 91.5054 11.5685C91.5413 11.6882 91.7689 11.8199 91.6012 11.9277C91.4336 12.0235 91.194 12.0355 91.0384 11.8199C90.9545 11.6882 90.8827 11.5445 90.7989 11.4128C90.739 11.317 90.6791 11.1733 90.5354 11.2212C90.4156 11.2571 90.4755 11.4008 90.4635 11.4966C90.4276 11.6762 90.5833 11.9517 90.2121 11.9517C90.0085 11.9517 89.8887 11.9038 89.9007 11.6643C89.9007 11.4367 89.8887 11.1852 89.8887 10.9338ZM90.727 10.7541C90.8468 10.7421 91.0264 10.7062 91.0144 10.5146C91.0144 10.335 90.8348 10.2871 90.6671 10.2751C90.4875 10.2631 90.4516 10.3709 90.4396 10.5146C90.4516 10.6703 90.5114 10.7661 90.727 10.7541Z" fill="#3EAFF8"></path>
  <path d="M97.3255 35.8671C97.2896 35.6635 97.1459 35.4599 97.1818 35.2683C97.2417 34.8971 97.1339 34.6097 96.9303 34.3223C96.8584 34.2145 96.7626 34.0947 96.7986 33.963C96.9063 33.5798 96.7147 33.2804 96.5591 32.969C96.1519 32.1786 95.6848 31.4122 95.0621 30.7655C94.7388 30.4422 94.7747 30.3104 95.2298 30.1787C95.3735 30.1428 95.5052 30.1308 95.6609 30.1787C95.5771 30.023 95.4453 29.9871 95.3375 29.9152C94.7747 29.556 94.2118 29.2087 93.5173 29.1728C93.3256 29.0051 93.3376 28.6099 93.0263 28.6099C92.4874 28.6099 92.1041 28.2866 91.661 28.083C90.9185 27.7357 90.4395 27.2926 90.6311 26.3944C90.703 26.0711 90.5114 25.9992 90.224 26.0112C89.3258 26.0232 88.4396 25.9753 87.5414 26.0232C86.5714 26.0831 85.8529 25.5322 85.1823 25.0053C84.8469 24.7298 84.5236 24.4903 84.1164 24.3346C83.7572 24.2029 83.3979 24.0113 83.1464 23.7598C82.9548 23.5682 83.1823 23.2329 83.1704 22.9694C83.1704 22.8616 83.1704 22.7539 83.1704 22.658C83.1704 21.0054 83.1823 19.3528 83.1704 17.6882C83.1704 17.3768 83.2542 17.1373 83.4578 16.9098C84.9547 15.0655 86.4277 13.2093 87.9127 11.3411C88.4157 10.7064 88.3438 9.8322 87.733 9.32923C87.1941 8.87416 86.2122 8.82625 85.5535 9.66454C84.3679 11.1735 83.1464 12.6465 81.9488 14.1434C81.7333 14.4189 81.6375 14.3829 81.4339 14.1314C80.2124 12.5986 78.9909 11.0777 77.7574 9.55676C77.2065 8.88613 76.2964 8.77835 75.6617 9.30528C75.015 9.8322 74.9671 10.7064 75.5299 11.413C77.0388 13.2931 78.5478 15.1853 80.0687 17.0654C80.2244 17.269 80.2842 17.4606 80.2842 17.7121C80.2723 18.742 80.2842 19.76 80.2842 20.7899C80.2842 21.2449 80.2842 21.712 80.2842 22.1671C80.2842 22.2748 80.2962 22.3946 80.1765 22.4425C80.0687 22.4904 80.0327 22.3706 79.9609 22.3227C79.4699 21.9635 78.9669 21.6162 78.4639 21.2689C78.0927 21.0174 77.7215 20.73 77.434 20.4306C76.943 19.9156 76.3083 19.6522 75.7814 19.233C75.4461 18.9696 75.003 18.8259 74.5958 18.6343C74.3443 18.5145 74.2845 18.3588 74.3324 18.1073C74.5719 16.7421 74.4761 15.4128 73.9971 14.1195C73.051 11.5687 71.2427 9.95196 68.5841 9.32923C66.5842 8.86218 64.5363 9.02984 62.5005 9.04181C61.8778 9.04181 61.3987 9.41306 61.1952 10.0238C61.0874 10.3472 60.9556 10.3831 60.7042 10.2513C60.6323 10.3591 60.8359 10.431 60.7161 10.5388C60.6084 10.5388 60.4886 10.4909 60.4407 10.407C60.2132 10.0478 59.806 9.96393 59.4707 9.76035C59.0276 9.48491 58.5485 9.32923 58.0695 9.14959C57.3749 8.88613 56.836 8.28735 56.1534 7.97599C55.9738 7.89216 55.7702 7.80833 55.6385 7.59277C55.5187 7.40116 55.2792 7.29338 55.0876 7.1377C55.0637 7.16165 55.0397 7.1856 55.0158 7.20955C55.3391 7.54487 55.5906 7.92808 55.9498 8.22747C56.3091 8.51489 56.6085 8.87415 56.8839 9.23342C57.0516 9.44898 56.9319 9.80825 57.2432 9.96393C57.351 10.0238 57.5426 10.1316 57.3989 10.2992C57.2791 10.443 57.1354 10.6465 56.8839 10.4669C56.7043 10.3352 56.4888 10.2394 56.2492 10.1076C56.3211 10.2753 56.4888 10.3232 56.4409 10.5148C56.1894 10.419 55.9379 10.1795 55.7103 10.2513C55.4469 10.3232 55.2433 10.2633 55.0277 10.1915C53.9499 9.8322 52.8841 9.41306 51.7584 9.23342C49.986 8.94601 48.1897 9.04181 46.4053 9.06576C45.4233 9.07774 44.8724 9.72442 44.8605 10.6944C44.8605 11.1136 44.8365 11.5327 44.8365 11.9519C44.8485 15.6404 44.8485 19.3408 44.8605 23.0293C44.8605 23.9993 45.4473 24.6101 46.4173 24.622C47.9382 24.634 49.4711 24.6699 50.992 24.5741C52.0458 24.5143 53.0637 24.2628 54.0098 23.7598C56.1175 22.6221 57.4588 20.8976 57.9857 18.5624C58.0096 18.4426 57.9857 18.287 58.1414 18.2271C58.4647 18.5265 58.7641 18.8618 59.0994 19.1492C59.6623 19.6163 60.1772 20.1432 60.8 20.5384C61.0155 20.6821 61.0754 20.8617 61.0634 21.1012C61.0514 21.7 61.0514 22.3108 61.0634 22.9095C61.0754 24.0352 61.6622 24.634 62.7879 24.634C64.0094 24.634 65.2309 24.622 66.4524 24.622C66.5842 24.622 66.7159 24.6101 66.8357 24.6819C67.5422 25.1011 68.2368 25.5322 68.9553 25.9633C68.8356 26.095 68.7158 26.0471 68.5961 26.0471C63.2789 26.0591 57.9498 26.0711 52.6326 26.0711C38.4296 26.0711 24.2265 26.0591 10.0235 26.0471C9.68818 26.0471 9.60435 26.1429 9.61632 26.4663C9.6283 30.2865 9.6283 34.1187 9.61632 37.9389C9.61632 38.2862 9.70015 38.37 10.0594 38.37C15.9155 38.358 21.7835 38.358 27.6396 38.358C47.7226 38.358 67.8177 38.358 87.9007 38.37C88.1282 38.37 88.3558 38.358 88.5474 38.4778C89.3857 39.0047 90.3198 39.3161 91.2179 39.7232C91.9964 40.0705 92.8586 40.0825 93.649 39.8071C94.2478 39.6035 94.8705 39.4239 95.4573 39.1364C96.7626 38.4658 97.553 37.376 97.3255 35.8671ZM52.3332 21.2928C51.5189 21.6401 50.6566 21.688 49.7824 21.7C49.2435 21.712 48.7046 21.688 48.1657 21.712C47.8304 21.7239 47.7106 21.6281 47.7106 21.2689C47.7346 19.7839 47.7226 18.2989 47.7226 16.814C47.7226 15.329 47.7346 13.844 47.7106 12.359C47.7106 11.9998 47.8184 11.916 48.1537 11.9279C49.1597 11.9519 50.1656 11.9279 51.1716 12.0716C53.1356 12.3471 54.8361 13.868 55.1595 15.9517C55.5307 18.251 54.4409 20.3827 52.3332 21.2928ZM60.6922 15.9038C60.6084 16.0715 60.4167 16.1074 60.2251 16.0835C59.9377 16.0475 59.7102 15.8679 59.4587 15.7721C59.3389 15.7242 59.2192 15.6883 59.1234 15.7242C58.6563 15.8799 58.4767 15.4847 58.2132 15.2571C57.9737 15.0536 57.9258 14.7063 57.83 14.4188C57.5306 13.4728 57.0756 12.6105 56.4409 11.8441C56.4049 11.7962 56.369 11.7363 56.3211 11.6764C56.8121 11.7124 57.3151 11.8561 57.4468 12.2992C57.6624 13.0536 58.333 12.9818 58.8 13.2572C59.0276 13.3889 59.2312 13.5566 59.4108 13.7482C59.6264 13.9877 59.5545 14.1913 59.2312 14.1793C58.8599 14.1793 58.9557 14.5386 58.7402 14.6584C59.4347 14.7422 60.0335 15.0057 60.5485 15.4368C60.6922 15.5565 60.788 15.7362 60.6922 15.9038ZM19.4123 35.0528C18.6938 35.6156 17.8795 35.903 16.9693 35.8791C15.0652 35.8791 13.4725 34.454 13.209 32.5619C12.9695 30.7416 14.1191 28.9572 15.8915 28.4303C17.113 28.071 18.2507 28.2626 19.2926 28.9931C19.5321 29.1608 19.6159 29.3284 19.3884 29.568C19.3764 29.5799 19.3764 29.5919 19.3644 29.6039C19.0411 30.1188 19.0411 30.1188 18.5621 29.7955C16.8615 28.6339 14.7419 29.544 14.3706 31.5799C14.1311 32.9451 14.8856 34.2744 15.9754 34.6815C16.9214 35.0288 17.8196 34.933 18.622 34.3582C18.8974 34.1666 19.0411 34.1666 19.2207 34.4181C19.2686 34.4899 19.3405 34.5618 19.4123 34.6097C19.6399 34.7654 19.6159 34.8971 19.4123 35.0528ZM25.6876 35.8791C23.6038 35.8791 21.9512 34.1666 21.9512 32.011C21.9512 29.9512 23.6757 28.2506 25.7714 28.2626C27.8791 28.2746 29.5796 29.9751 29.5676 32.0828C29.5796 34.2145 27.8791 35.8791 25.6876 35.8791ZM37.4236 34.2983C37.256 35.1486 36.3937 35.7953 35.3758 35.8432C35.2441 35.8551 35.1123 35.8432 34.9806 35.8432C34.2142 35.8432 33.5076 35.6635 32.8729 35.2085C32.6693 35.0528 32.6334 34.921 32.801 34.7294C32.8849 34.6456 32.9567 34.5498 33.0166 34.454C33.1483 34.2504 33.2801 34.2384 33.4956 34.3821C34.1902 34.8252 34.9207 35.1126 35.759 34.8133C36.1901 34.6576 36.4296 34.3462 36.4536 33.951C36.4656 33.5558 36.25 33.2325 35.8309 33.0409C35.292 32.8014 34.7291 32.6337 34.1543 32.49C32.1903 31.987 32.1065 30.047 32.9088 29.077C33.3519 28.5381 33.9627 28.3105 34.6333 28.2267C35.5315 28.1189 36.3338 28.3704 37.0883 28.8614C37.5554 29.1608 37.1482 29.3644 37.0404 29.5919C36.9207 29.8434 36.7769 29.8314 36.5494 29.6638C35.8668 29.1608 35.1123 28.8973 34.2621 29.2326C33.783 29.4243 33.4118 29.9033 33.4358 30.3344C33.4597 30.8374 33.7711 31.1487 34.2261 31.3164C34.765 31.508 35.3159 31.6876 35.8668 31.8553C37.0524 32.1906 37.6512 33.1367 37.4236 34.2983ZM48.3214 35.6995C47.5909 35.6995 47.6148 35.7114 47.4113 34.9809C47.0999 33.8432 46.7526 32.7175 46.4293 31.5799C46.4053 31.496 46.3574 31.4242 46.2736 31.2685C45.6987 32.7535 45.1599 34.1546 44.609 35.5557C44.573 35.5677 44.5371 35.5677 44.4892 35.5797C43.9024 34.1666 43.3156 32.7535 42.7168 31.2924C42.4653 31.5918 42.4534 31.9271 42.3576 32.2265C42.0342 33.2564 41.7348 34.2863 41.4594 35.3162C41.3756 35.6396 41.2199 35.7114 40.9325 35.6875C40.8247 35.6755 40.7169 35.6755 40.6211 35.6875C40.3457 35.7114 40.2618 35.6037 40.3457 35.3402C40.657 34.3223 40.9684 33.3163 41.2798 32.2984C41.675 30.993 42.0821 29.6877 42.4773 28.3944C42.5013 28.3105 42.4773 28.1788 42.6091 28.1908C42.7049 28.1908 42.7528 28.2985 42.7767 28.3824C43.2917 29.7236 43.8186 31.0649 44.3335 32.4181C44.3814 32.5499 44.4174 32.6936 44.573 32.8373C44.7527 32.3822 44.9084 31.975 45.064 31.5559C45.4473 30.526 45.8185 29.4961 46.2017 28.4542C46.2377 28.3464 46.2616 28.1788 46.3933 28.1788C46.549 28.1788 46.5011 28.3584 46.537 28.4542C47.2316 30.7176 47.9142 32.993 48.6088 35.2564C48.7046 35.5557 48.6807 35.6995 48.3214 35.6995ZM56.0337 35.6875C54.7164 35.6994 53.411 35.6875 52.0937 35.6875C51.7344 35.6875 51.7823 35.412 51.8063 35.2085C51.9141 33.9989 51.8422 32.7894 51.8542 31.5918C51.8662 30.6697 51.9021 29.7596 51.7943 28.8374C51.7584 28.4782 51.9021 28.3464 52.2614 28.3584C52.7883 28.3824 53.3152 28.3704 53.9499 28.3704C54.5487 28.3584 55.2792 28.4063 55.9978 28.3225C56.3211 28.2866 56.4169 28.4183 56.357 28.7297C56.2612 29.2805 56.2133 29.3284 55.6624 29.3284C54.8601 29.3284 54.0577 29.3404 53.2553 29.3284C52.956 29.3284 52.8362 29.4242 52.8482 29.7356C52.8721 30.4302 52.8602 31.1248 52.8482 31.8194C52.8482 32.0828 52.944 32.1667 53.1955 32.1547C54.0218 32.1307 54.8481 32.1667 55.6744 32.1307C55.866 32.1188 56.2253 31.9391 56.2253 32.3942C56.2253 32.9331 56.1175 33.0768 55.6624 33.0768C54.8601 33.0888 54.0577 33.1127 53.2553 33.0888C52.92 33.0768 52.8123 33.1966 52.8482 33.5199C52.8721 33.7714 52.8721 34.0229 52.8482 34.2624C52.8003 34.6576 52.9799 34.7534 53.3512 34.7414C54.2373 34.7175 55.1355 34.7534 56.0217 34.6935C56.1774 34.6815 56.4169 34.6097 56.4409 34.9091C56.4648 35.3522 56.2971 35.6875 56.0337 35.6875ZM65.183 28.6339C65.1471 29.3165 65.0393 29.4003 64.3447 29.3644C63.9256 29.3404 63.5064 29.3404 63.0873 29.3284C62.8478 29.3165 62.728 29.4003 62.728 29.6638C62.764 31.4242 62.6801 33.1846 62.7759 34.933C62.7759 34.945 62.7759 34.957 62.7759 34.9689C62.8119 35.6515 62.5125 35.8791 61.8418 35.6635C61.6143 35.5917 61.6502 35.4001 61.6502 35.2444C61.6502 34.3223 61.6502 33.4121 61.6502 32.49C61.6502 31.5918 61.6383 30.7056 61.6622 29.8075C61.6742 29.4482 61.5784 29.2805 61.1832 29.3045C60.6922 29.3404 60.1892 29.3284 59.6862 29.3404C59.4108 29.3524 59.327 29.2566 59.3868 28.9931C59.4108 28.8734 59.4347 28.7656 59.4467 28.6458C59.4707 28.3824 59.6144 28.2866 59.8659 28.3105C61.5305 28.4063 63.1951 28.3584 64.8597 28.3345C65.1351 28.3464 65.195 28.3944 65.183 28.6339ZM69.3266 35.6995C68.5362 35.7114 68.5482 35.7234 68.5362 34.957C68.5242 32.8852 68.5242 30.8134 68.5003 28.7416C68.5003 28.5261 68.5721 28.4183 68.7637 28.3704C68.7996 28.3584 68.8356 28.3464 68.8835 28.3464C69.602 28.1908 69.614 28.2027 69.614 28.9213C69.614 29.9392 69.614 30.9691 69.614 31.987H69.626C69.626 33.1127 69.626 34.2384 69.626 35.3641C69.6499 35.6156 69.5781 35.6875 69.3266 35.6995ZM69.9613 21.4246C69.7218 21.6401 69.4344 21.7958 69.111 21.9156C68.7877 22.0353 68.4643 22.1072 68.153 22.1311C67.8416 22.1551 67.4225 22.179 66.8836 22.179H64.4166V12.0836C64.4046 12.0836 64.4046 12.0716 64.3926 12.0716C64.3807 12.0597 64.3687 12.0237 64.3328 11.9279C64.3567 11.9279 64.3807 11.9279 64.4046 11.9279V11.2812H66.5482C67.5422 11.2812 68.3925 11.389 69.0871 11.6046C69.7936 11.8201 70.3804 12.3231 70.8594 13.1135C71.3385 13.9039 71.578 15.0895 71.578 16.6703C71.59 18.9217 71.0511 20.5144 69.9613 21.4246ZM78.7633 35.2683C77.47 36.0707 76.1287 36.1306 74.7994 35.4001C73.4941 34.6815 72.8713 33.5199 72.8234 32.1068C72.8713 30.4901 73.6019 29.3165 74.991 28.6458C76.3323 27.9992 77.6616 28.1309 78.907 28.9811C79.1825 29.1728 79.2543 29.3524 79.0268 29.6159C78.9789 29.6757 78.931 29.7356 78.8951 29.8075C78.7753 30.0829 78.6556 30.1308 78.3801 29.9152C77.3023 29.1009 76.1167 29.065 75.0988 29.7835C74.1527 30.4541 73.7575 31.7834 74.1288 33.0409C74.4521 34.1067 75.4581 34.8731 76.6197 34.8731C77.2305 34.8731 77.8292 34.7414 78.3083 34.3223C78.5358 34.1187 78.6675 34.1546 78.8591 34.3582C79.3621 34.8731 79.3741 34.8851 78.7633 35.2683ZM86.4996 35.1246C85.9846 35.6994 85.2781 35.8671 84.5475 35.8432C83.7811 35.8551 83.0865 35.6635 82.4518 35.2444C82.2123 35.0767 82.1285 34.921 82.356 34.6815C82.4398 34.5977 82.5117 34.5019 82.5716 34.3941C82.6913 34.2025 82.835 34.2145 83.0027 34.3342C83.362 34.6217 83.7811 34.7534 84.2242 34.8612C84.5954 34.945 84.9547 34.933 85.302 34.7893C85.6972 34.6336 85.9367 34.3702 85.9726 33.951C86.0205 33.5558 85.793 33.2205 85.3739 33.0289C84.823 32.7774 84.2362 32.6098 83.6613 32.466C82.0806 32.0469 81.4339 30.3823 82.3919 29.1129C82.835 28.5141 83.4937 28.2746 84.2002 28.2027C85.0745 28.1189 85.8529 28.3584 86.5834 28.8374C86.8349 29.0051 86.9067 29.1608 86.6792 29.3883C86.6193 29.4482 86.5834 29.5201 86.5475 29.5919C86.4277 29.8314 86.308 29.8314 86.0924 29.6638C85.5894 29.2566 85.0026 29.041 84.344 29.077C83.9368 29.1009 83.5775 29.2446 83.2901 29.544C82.7512 30.1069 82.859 30.8493 83.5536 31.2086C84.1284 31.508 84.7631 31.6397 85.3739 31.8313C87.2061 32.4062 87.3618 34.1786 86.4996 35.1246ZM94.1041 29.7117C94.0681 29.8075 93.9843 29.7955 93.9124 29.7476C93.649 29.5799 93.3855 29.4123 93.0861 29.2207C93.2777 29.1129 93.3855 29.2087 93.5053 29.1967C93.625 29.3763 93.8166 29.4482 93.9963 29.556C94.0442 29.5799 94.152 29.6039 94.1041 29.7117Z" fill="#3EAFF8"></path>
</svg>
