<svg width="167" height="40" viewBox="0 0 167 40" fill="none" xmlns="http://www.w3.org/2000/svg">
<path d="M2.98469 29.9999V17.6785H0V14.2091H2.98469V13.1377C2.98469 8.85198 5.86735 6.8877 9.08163 6.8877C10.4847 6.8877 11.9388 7.34688 13.2398 8.18872L11.7857 11.1479C10.9439 10.5867 10.1531 10.3061 9.36224 10.3061C8.0102 10.3061 6.96429 11.2244 6.96429 13.1632V14.2346H11.6582V17.704H6.93878V29.9999H2.98469Z" fill="#1E314C"/>
<path d="M18.75 9.46419C18.75 12.5509 14.0816 12.5509 14.0816 9.46419C14.0816 6.37745 18.75 6.40296 18.75 9.46419ZM14.4387 13.9285V29.9999H18.3928V13.9285H14.4387Z" fill="#1E314C"/>
<path d="M25.3571 23.3928C25.6122 25.3826 27.3469 26.8112 30.1276 26.8112C31.5816 26.8112 33.4949 26.25 34.4133 25.3061L36.9388 27.8061C35.2551 29.5663 32.5 30.4081 30.051 30.4081C24.5408 30.4081 21.25 26.9898 21.25 21.8622C21.25 16.9898 24.5663 13.4949 29.7449 13.4949C35.102 13.4949 38.4439 16.8112 37.8316 23.3928H25.3571ZM34.0561 20.1275C33.801 18.0612 32.1684 17.0153 29.898 17.0153C27.7551 17.0153 25.9949 18.0612 25.4082 20.1275H34.0561Z" fill="#1E314C"/>
<path d="M44.8215 7.2959V29.9745H40.8929V7.2959H44.8215Z" fill="#1E314C"/>
<path d="M64.9235 7.2959V29.9745H61.2245L60.9694 27.7551C59.7449 29.6683 57.7551 30.3316 55.8163 30.3316C51.1225 30.3316 47.5765 27.2194 47.5765 21.9643C47.5765 16.4541 51.0459 13.5969 55.7143 13.5969C57.398 13.5969 60.0255 14.5153 60.9694 16.1735V7.2959H64.9235ZM51.5051 21.9643C51.5051 24.7449 53.5204 26.6581 56.0459 26.6581C58.5459 26.6581 60.6888 24.8469 60.6888 21.9643C60.6888 19.1837 58.5459 17.2959 56.0459 17.2959C53.5204 17.2959 51.5051 19.0816 51.5051 21.9643Z" fill="#1E314C"/>
<path d="M72.6786 9.46419C72.6786 12.5509 68.0102 12.5509 68.0102 9.46419C68.0102 6.37745 72.6786 6.40296 72.6786 9.46419ZM68.3674 13.9285V29.9999H72.3214V13.9285H68.3674Z" fill="#1E314C"/>
<path d="M87.6786 30.0001V21.6073C87.6786 19.1838 86.352 17.3215 83.8265 17.3215C81.403 17.3215 79.7449 19.3624 79.7449 21.8113V30.0001H75.8163V13.9542H79.3367L79.5918 16.1226C81.2245 14.5409 82.8316 13.7246 84.8469 13.7246C88.6224 13.7246 91.6326 16.5562 91.6326 21.5818V30.0001H87.6786Z" fill="#1E314C"/>
<path d="M105.485 18.2399C104.337 17.1685 103.061 16.8113 101.531 16.8113C99.6429 16.8113 98.5969 17.3981 98.5969 18.393C98.5969 19.4389 99.5408 20.0256 101.582 20.1532C104.592 20.3572 108.418 21.0205 108.418 25.2807C108.418 28.1123 106.122 30.5358 101.531 30.5358C99.0051 30.5358 96.4796 30.1021 94.1327 27.6787L96.0714 24.847C97.2194 26.1225 99.7959 27.0664 101.582 27.0919C103.087 27.1174 104.464 26.3521 104.464 25.1787C104.464 24.0817 103.546 23.6225 101.276 23.495C98.2653 23.2654 94.6429 22.1685 94.6429 18.5205C94.6429 14.8215 98.4694 13.5205 101.403 13.5205C103.903 13.5205 105.791 14.0052 107.628 15.6379L105.485 18.2399Z" fill="#1E314C"/>
<path d="M114.923 13.9285H110.969V29.9999H114.923V13.9285Z" fill="#1E314C"/>
<path d="M131.071 12.3726L134.005 14.5919L132.219 16.8624C133.444 18.2654 133.903 19.847 133.903 21.6073C133.903 23.597 133.163 26.3777 130.536 27.5766C133.189 28.9032 133.852 30.8164 133.852 32.8573C133.852 37.2705 130.485 40.0001 125.842 40.0001C121.199 40.0001 117.73 37.1685 117.73 32.8573H121.658C121.658 34.9236 123.571 36.3011 125.842 36.3011C128.112 36.3011 129.898 35.0766 129.898 32.8573C129.898 30.6379 127.832 29.643 125.842 29.643C120.842 29.643 117.73 26.5817 117.73 21.5817C117.73 16.5817 121.378 13.4695 125.842 13.4695C127.117 13.4695 128.418 13.6226 129.515 14.3879L131.071 12.3726ZM121.607 21.5817C121.607 24.3624 123.495 26.0205 125.791 26.0205C128.061 26.0205 129.949 24.3368 129.949 21.5817C129.949 18.8266 128.061 17.0664 125.791 17.0664C123.495 17.0664 121.607 18.8011 121.607 21.5817Z" fill="#1E314C"/>
<path d="M140.714 7.27051V16.1736C142.143 14.3113 143.903 13.7756 145.714 13.7756C150.255 13.7756 152.27 16.8623 152.27 21.5562V30.0001H148.316V21.5817C148.316 18.6481 146.786 17.4236 144.668 17.4236C142.321 17.4236 140.714 19.4134 140.714 21.8113V30.0001H136.735V7.27051H140.714Z" fill="#1E314C"/>
<path d="M161.173 9.46436V14.0307H165.587V17.449H161.148V24.3623C161.148 25.8929 161.99 26.6327 163.214 26.6327C163.827 26.6327 164.541 26.4286 165.128 26.148L166.224 29.5154C165.077 29.9746 164.158 30.1531 162.934 30.2042C159.464 30.3317 157.194 28.3419 157.194 24.3623V17.4235H154.209V14.0307H157.194V9.89803L161.173 9.46436Z" fill="#1E314C"/>
<path d="M104.592 10.7143C105.508 10.7143 106.25 9.97189 106.25 9.05611C106.25 8.14033 105.508 7.39795 104.592 7.39795C103.676 7.39795 102.934 8.14033 102.934 9.05611C102.934 9.97189 103.676 10.7143 104.592 10.7143Z" fill="#55A9DE"/>
<path d="M108.673 6.60702C109.801 6.60702 110.714 5.69332 110.714 4.56621C110.714 3.4391 109.801 2.52539 108.673 2.52539C107.546 2.52539 106.633 3.4391 106.633 4.56621C106.633 5.69332 107.546 6.60702 108.673 6.60702Z" fill="#55A9DE"/>
<path d="M112.755 12.0664C114.22 12.0664 115.408 10.8786 115.408 9.41332C115.408 7.94807 114.22 6.76025 112.755 6.76025C111.29 6.76025 110.102 7.94807 110.102 9.41332C110.102 10.8786 111.29 12.0664 112.755 12.0664Z" fill="#55A9DE"/>
<path d="M118.087 6.32653C119.834 6.32653 121.25 4.91029 121.25 3.16327C121.25 1.41624 119.834 0 118.087 0C116.34 0 114.923 1.41624 114.923 3.16327C114.923 4.91029 116.34 6.32653 118.087 6.32653Z" fill="#55A9DE"/>
<path d="M108.437 4.34458L104.335 8.82104L104.824 9.26915L108.926 4.79269L108.437 4.34458Z" fill="#55A9DE"/>
<path d="M116.729 4.34495L112.628 8.82202L113.117 9.27006L117.218 4.79299L116.729 4.34495Z" fill="#55A9DE"/>
<path d="M109.003 4.34524L108.514 4.79321L112.615 9.27028L113.104 8.82231L109.003 4.34524Z" fill="#55A9DE"/>
</svg>
