<svg width="167" height="40" viewBox="0 0 167 40" fill="none" xmlns="http://www.w3.org/2000/svg">
<path d="M2.98469 30V17.6786H0V14.2092H2.98469V13.1378C2.98469 8.85204 5.86735 6.88776 9.08163 6.88776C10.4847 6.88776 11.9388 7.34694 13.2398 8.18878L11.7857 11.148C10.9439 10.5867 10.1531 10.3061 9.36224 10.3061C8.0102 10.3061 6.96429 11.2245 6.96429 13.1633V14.2347H11.6582V17.7041H6.93878V30H2.98469Z" fill="white"/>
<path d="M18.75 9.46428C18.75 12.551 14.0816 12.551 14.0816 9.46428C14.0816 6.37754 18.75 6.40305 18.75 9.46428ZM14.4387 13.9286V30H18.3928V13.9286H14.4387Z" fill="white"/>
<path d="M25.3571 23.3929C25.6122 25.3827 27.3469 26.8112 30.1276 26.8112C31.5816 26.8112 33.4949 26.25 34.4133 25.3061L36.9388 27.8061C35.2551 29.5663 32.5 30.4082 30.051 30.4082C24.5408 30.4082 21.25 26.9898 21.25 21.8622C21.25 16.9898 24.5663 13.4949 29.7449 13.4949C35.102 13.4949 38.4439 16.8112 37.8316 23.3929H25.3571ZM34.0561 20.1276C33.801 18.0612 32.1684 17.0153 29.898 17.0153C27.7551 17.0153 25.9949 18.0612 25.4082 20.1276H34.0561Z" fill="white"/>
<path d="M44.8215 7.29593V29.9745H40.8929V7.29593H44.8215Z" fill="white"/>
<path d="M64.9235 7.29593V29.9745H61.2245L60.9694 27.7551C59.7449 29.6684 57.7551 30.3316 55.8163 30.3316C51.1225 30.3316 47.5765 27.2194 47.5765 21.9643C47.5765 16.4541 51.0459 13.5969 55.7143 13.5969C57.398 13.5969 60.0255 14.5153 60.9694 16.1735V7.29593H64.9235ZM51.5051 21.9643C51.5051 24.7449 53.5204 26.6582 56.0459 26.6582C58.5459 26.6582 60.6888 24.8469 60.6888 21.9643C60.6888 19.1837 58.5459 17.2959 56.0459 17.2959C53.5204 17.2959 51.5051 19.0816 51.5051 21.9643Z" fill="white"/>
<path d="M72.6786 9.46428C72.6786 12.551 68.0102 12.551 68.0102 9.46428C68.0102 6.37754 72.6786 6.40305 72.6786 9.46428ZM68.3674 13.9286V30H72.3214V13.9286H68.3674Z" fill="white"/>
<path d="M87.6786 30V21.6071C87.6786 19.1837 86.352 17.3214 83.8265 17.3214C81.403 17.3214 79.7449 19.3622 79.7449 21.8112V30H75.8163V13.9541H79.3367L79.5918 16.1224C81.2245 14.5408 82.8316 13.7245 84.8469 13.7245C88.6224 13.7245 91.6326 16.5561 91.6326 21.5816V30H87.6786Z" fill="white"/>
<path d="M105.485 18.2398C104.337 17.1684 103.061 16.8112 101.531 16.8112C99.6429 16.8112 98.5969 17.398 98.5969 18.3929C98.5969 19.4388 99.5408 20.0255 101.582 20.1531C104.592 20.3572 108.418 21.0204 108.418 25.2806C108.418 28.1123 106.122 30.5357 101.531 30.5357C99.0051 30.5357 96.4796 30.102 94.1327 27.6786L96.0714 24.8469C97.2194 26.1225 99.7959 27.0663 101.582 27.0918C103.087 27.1174 104.464 26.352 104.464 25.1786C104.464 24.0816 103.546 23.6225 101.276 23.4949C98.2653 23.2653 94.6429 22.1684 94.6429 18.5204C94.6429 14.8214 98.4694 13.5204 101.403 13.5204C103.903 13.5204 105.791 14.0051 107.628 15.6378L105.485 18.2398Z" fill="white"/>
<path d="M114.923 13.9286H110.969V30H114.923V13.9286Z" fill="white"/>
<path d="M131.071 12.3725L134.005 14.5919L132.219 16.8623C133.444 18.2653 133.903 19.847 133.903 21.6072C133.903 23.597 133.163 26.3776 130.536 27.5765C133.189 28.9031 133.852 30.8163 133.852 32.8572C133.852 37.2704 130.485 40 125.842 40C121.199 40 117.73 37.1684 117.73 32.8572H121.658C121.658 34.9235 123.571 36.301 125.842 36.301C128.112 36.301 129.898 35.0765 129.898 32.8572C129.898 30.6378 127.832 29.6429 125.842 29.6429C120.842 29.6429 117.73 26.5817 117.73 21.5816C117.73 16.5817 121.378 13.4694 125.842 13.4694C127.117 13.4694 128.418 13.6225 129.515 14.3878L131.071 12.3725ZM121.607 21.5816C121.607 24.3623 123.495 26.0204 125.791 26.0204C128.061 26.0204 129.949 24.3368 129.949 21.5816C129.949 18.8265 128.061 17.0663 125.791 17.0663C123.495 17.0663 121.607 18.801 121.607 21.5816Z" fill="white"/>
<path d="M140.714 7.27042V16.1735C142.143 14.3112 143.903 13.7755 145.714 13.7755C150.255 13.7755 152.27 16.8623 152.27 21.5561V30H148.316V21.5816C148.316 18.648 146.786 17.4235 144.668 17.4235C142.321 17.4235 140.714 19.4133 140.714 21.8112V30H136.735V7.27042H140.714Z" fill="white"/>
<path d="M161.173 9.46429V14.0306H165.587V17.449H161.148V24.3623C161.148 25.8929 161.99 26.6327 163.214 26.6327C163.827 26.6327 164.541 26.4286 165.128 26.148L166.224 29.5153C165.077 29.9745 164.158 30.1531 162.934 30.2041C159.464 30.3316 157.194 28.3418 157.194 24.3623V17.4235H154.209V14.0306H157.194V9.89797L161.173 9.46429Z" fill="white"/>
<path d="M104.592 10.7143C105.508 10.7143 106.25 9.97189 106.25 9.05611C106.25 8.14033 105.508 7.39795 104.592 7.39795C103.676 7.39795 102.934 8.14033 102.934 9.05611C102.934 9.97189 103.676 10.7143 104.592 10.7143Z" fill="#55A9DE"/>
<path d="M108.673 6.60715C109.801 6.60715 110.714 5.69344 110.714 4.56633C110.714 3.43922 109.801 2.52551 108.673 2.52551C107.546 2.52551 106.633 3.43922 106.633 4.56633C106.633 5.69344 107.546 6.60715 108.673 6.60715Z" fill="#55A9DE"/>
<path d="M112.755 12.0663C114.22 12.0663 115.408 10.8785 115.408 9.41329C115.408 7.94804 114.22 6.76022 112.755 6.76022C111.29 6.76022 110.102 7.94804 110.102 9.41329C110.102 10.8785 111.29 12.0663 112.755 12.0663Z" fill="#55A9DE"/>
<path d="M118.087 6.32653C119.834 6.32653 121.25 4.91029 121.25 3.16327C121.25 1.41624 119.834 0 118.087 0C116.34 0 114.923 1.41624 114.923 3.16327C114.923 4.91029 116.34 6.32653 118.087 6.32653Z" fill="#55A9DE"/>
<path d="M108.437 4.3444L104.335 8.82086L104.824 9.26896L108.926 4.7925L108.437 4.3444Z" fill="#55A9DE"/>
<path d="M116.729 4.34511L112.628 8.82217L113.117 9.27021L117.218 4.79314L116.729 4.34511Z" fill="#55A9DE"/>
<path d="M109.003 4.34515L108.514 4.79312L112.615 9.27019L113.104 8.82222L109.003 4.34515Z" fill="#55A9DE"/>
</svg>
