<svg width="34" height="39" viewBox="0 0 34 39" fill="none" xmlns="http://www.w3.org/2000/svg">
<path opacity="0.1" d="M32.4868 33.9742C33.1591 31.2389 26.7043 27.301 18.0694 25.1785C9.43463 23.056 1.88971 23.5528 1.21737 26.2881C0.545037 29.0233 6.99989 32.9613 15.6347 35.0837C24.2695 37.2062 31.8145 36.7095 32.4868 33.9742Z" fill="#05090D"/>
<path d="M25.6708 32H28.6708L20.7708 23C19.4708 21.1 17.2708 20 14.9708 20H12.1708C10.1708 20 8.5708 21.6 8.5708 23.6V26H6.5708" stroke="#213651" stroke-width="4" stroke-miterlimit="10" stroke-linecap="round" stroke-linejoin="round"/>
<path d="M21.6709 21L9.6709 19L10.6709 13H17.6709L21.6709 21Z" fill="url(#paint0_linear)"/>
<path d="M11.6709 13C11.6709 13 7.1709 14.5 14.1709 26.5" stroke="#213651" stroke-width="3" stroke-miterlimit="10" stroke-linecap="round" stroke-linejoin="round"/>
<path d="M17.271 13C17.671 13 26.671 15 30.671 15" stroke="#213651" stroke-width="3" stroke-miterlimit="10" stroke-linecap="round" stroke-linejoin="round"/>
<path d="M13.671 0C10.171 0 7.171 2.6 6.771 6C6.871 6 7.07099 6 7.17099 6H12.171C13.571 6 14.671 7.1 14.671 8.5C14.671 9.9 13.571 11 12.171 11C10.771 11 9.67099 11 9.67099 10.5C9.67099 10.9 8.97101 11 7.97101 11C9.27101 12.8 11.371 14 13.671 14C17.571 14 20.671 10.9 20.671 7C20.671 3.2 17.571 0 13.671 0Z" fill="url(#paint1_linear)"/>
<path d="M9.6709 10.5C9.6709 11 10.7709 11 12.1709 11C13.5709 11 14.6709 9.9 14.6709 8.5C14.6709 7.1 13.5709 6 12.1709 6H7.1709C7.0709 6 6.8709 6 6.7709 6C6.7709 6.3 6.6709 6.6 6.6709 7C6.6709 8.5 7.17092 9.9 7.97092 11C8.97092 11 9.6709 10.9 9.6709 10.5Z" fill="#B5725B"/>
<path d="M12.1709 9C12.447 9 12.6709 8.77614 12.6709 8.5C12.6709 8.22386 12.447 8 12.1709 8C11.8948 8 11.6709 8.22386 11.6709 8.5C11.6709 8.77614 11.8948 9 12.1709 9Z" fill="#262434"/>
<path d="M8.1709 9C8.44704 9 8.6709 8.77614 8.6709 8.5C8.6709 8.22386 8.44704 8 8.1709 8C7.89476 8 7.6709 8.22386 7.6709 8.5C7.6709 8.77614 7.89476 9 8.1709 9Z" fill="#262434"/>
<defs>
<linearGradient id="paint0_linear" x1="9.7004" y1="17.0444" x2="21.7004" y2="17.0444" gradientUnits="userSpaceOnUse">
<stop stop-color="#1A2833"/>
<stop offset="1" stop-color="#1E314C"/>
</linearGradient>
<linearGradient id="paint1_linear" x1="6.7734" y1="7.0444" x2="20.7005" y2="7.0444" gradientUnits="userSpaceOnUse">
<stop stop-color="#1A2833"/>
<stop offset="1" stop-color="#1E314C"/>
</linearGradient>
</defs>
</svg>
