<svg width="367" height="177" viewBox="0 0 367 177" fill="none" xmlns="http://www.w3.org/2000/svg">
<path d="M342.077 152.298H201.265V75.2307C201.265 36.4485 232.792 5 271.671 5C310.55 5 342.077 36.4485 342.077 75.2307V152.298Z" fill="#26201E"/>
<path d="M350.8 156.027C342.202 150.62 343.947 135.58 346.937 124.019C349.118 115.629 351.548 106.12 348.807 101.334C347.124 98.351 345.13 96.6729 342.701 96.1136C338.526 95.1192 334.227 97.9159 334.227 97.9159L330.052 91.763C330.302 91.5765 337.031 87.1638 344.445 88.8419C348.931 89.8985 352.607 92.8196 355.349 97.6052C359.648 105.063 356.906 115.629 354.227 125.884C351.922 134.896 358.09 145.462 362.078 147.948L350.8 156.027Z" fill="#30ABEF"/>
<path d="M352.046 170.322C343.947 168.457 338.152 165.35 334.227 161.124C324.133 150.123 330.987 128.991 334.227 118.861C334.725 117.431 335.099 116.126 335.286 115.318C336.158 112.086 337.965 108.419 339.834 104.504C342.638 98.786 346.813 90.147 344.134 88.1582C343.822 87.9096 343.386 87.7231 342.576 87.8474C338.339 88.5311 331.984 96.1135 329.554 99.7183L323.386 95.5542C323.448 95.4299 325.691 92.198 328.806 88.8418C333.355 83.9319 337.591 81.1351 341.392 80.5136C344.071 80.0785 346.564 80.6379 348.682 82.1917C356.283 87.9096 350.925 98.9103 346.626 107.798C344.881 111.341 343.261 114.697 342.576 117.245C342.327 118.239 341.891 119.544 341.392 121.098C338.775 129.24 334.975 142.603 342.077 150.434C346.003 154.722 351.486 161.186 363.075 158.575L367 171.565C362.202 172.622 357.031 171.565 352.046 170.322Z" fill="#3EAFF8"/>
<path d="M336.158 98.8481C334.289 98.8481 332.732 97.2944 332.732 95.4298V82.9996C332.732 81.1351 334.289 79.5813 336.158 79.5813C338.028 79.5813 339.585 81.1351 339.585 82.9996V95.4298C339.585 97.2944 338.028 98.8481 336.158 98.8481Z" fill="#3EAFF8"/>
<path d="M320.582 115.505C320.582 123.46 333.292 129.986 341.267 129.986C349.243 129.986 355.785 123.522 355.785 115.505C355.785 107.487 349.305 101.023 341.267 101.023C333.292 101.023 320.582 107.487 320.582 115.505Z" fill="#B5725B"/>
<path d="M327.56 115.505C327.56 120.29 335.224 124.206 340.021 124.206C344.819 124.206 348.744 120.29 348.744 115.505C348.744 110.719 344.819 106.803 340.021 106.803C335.224 106.741 327.56 110.657 327.56 115.505Z" fill="#9B5C4B"/>
<path d="M221.203 115.505C221.203 123.46 208.493 129.986 200.517 129.986C192.542 129.986 186 123.46 186 115.505C186 107.549 192.48 101.023 200.517 101.023C208.555 101.023 221.203 107.487 221.203 115.505Z" fill="#B5725B"/>
<path d="M214.225 115.505C214.225 120.29 206.561 124.206 201.764 124.206C196.966 124.206 193.041 120.29 193.041 115.505C193.041 110.719 196.966 106.803 201.764 106.803C206.561 106.803 214.225 110.657 214.225 115.505Z" fill="#9B5C4B"/>
<path d="M271.048 163.485C235.284 163.485 206.25 134.523 206.25 98.8482V84.5534C206.25 48.8787 235.284 19.9163 271.048 19.9163C306.812 19.9163 335.847 48.8787 335.847 84.5534V98.8482C335.847 134.523 306.812 163.485 271.048 163.485Z" fill="#B5725B"/>
<path d="M335.847 90.1471C335.847 90.1471 288.992 83.3726 273.229 83.3105C256.406 83.2483 206.25 90.1471 206.25 90.1471V69.3886C206.25 66.4675 208.617 64.0437 211.608 64.0437C211.608 64.0437 256.095 57.207 271.048 57.207C286.002 57.207 330.488 64.0437 330.488 64.0437C333.417 64.0437 335.847 66.4054 335.847 69.3886V90.1471Z" fill="#3EAFF8"/>
<path d="M279.709 62.179C279.833 62.4276 280.083 62.3033 280.27 62.3654C282.699 63.0491 284.008 65.473 283.26 67.8347C282.45 70.1964 279.896 71.3773 277.59 70.3829C276.967 70.0721 276.593 70.1343 276.22 70.6937C276.095 70.8801 275.97 71.0044 275.783 71.1909C275.036 71.8745 274.537 72.4339 275.285 73.6148C276.157 74.9821 275.41 76.9709 274.039 77.9032C272.668 78.8354 270.674 78.649 269.491 77.5303C268.307 76.3494 268.12 74.4227 269.054 72.9932C269.241 72.7446 269.864 72.4339 269.304 72.061C268.743 71.6881 268.618 70.5072 267.497 71.0666C266.874 71.3773 266.188 71.3773 265.565 71.0666C265.067 70.818 264.755 70.9423 264.444 71.3773C264.194 71.6881 263.945 71.9367 263.696 72.1853C263.135 72.7446 262.699 73.1797 263.135 74.1741C263.571 75.355 262.512 76.598 261.266 76.7223C259.958 76.9088 258.836 75.9765 258.774 74.6713C258.712 73.4283 259.708 72.1231 260.892 72.3717C262.699 72.7446 263.198 71.3152 264.07 70.4451C264.506 70.0721 264.008 69.6992 263.883 69.3263C263.447 67.8347 264.132 66.4052 265.628 65.8459C267.061 65.3487 268.618 66.1566 269.117 67.5861C269.366 68.2698 269.366 68.9534 268.992 69.5749C268.618 70.2586 269.117 70.5694 269.491 70.8801C269.864 71.253 270.051 71.9988 270.924 71.6259C271.796 71.253 272.73 71.3152 273.54 71.7502C273.914 71.9367 274.101 71.8745 274.288 71.5638C274.413 71.3773 274.537 71.253 274.724 71.0666C275.597 70.2586 276.282 69.6371 275.347 68.1455C274.039 65.9702 275.534 63.2355 277.964 62.4897C278.213 62.4276 278.525 62.4897 278.712 62.2411C279.086 62.179 279.397 62.179 279.709 62.179Z" fill="#B3E4FF"/>
<path d="M226.188 88.2825L236.717 86.6666L250.487 84.5535" stroke="#26201E" stroke-width="9" stroke-miterlimit="10" stroke-linecap="round"/>
<path d="M317.778 88.2825L293.478 84.5535" stroke="#26201E" stroke-width="9" stroke-miterlimit="10" stroke-linecap="round"/>
<path d="M281.453 104.255C281.453 104.877 283.946 120.415 275.098 120.415C268.494 120.415 267.746 116.686 267.746 109.849L267.933 104.442" stroke="#9B5C4B" stroke-width="2.1728" stroke-miterlimit="10" stroke-linecap="round"/>
<path d="M226.188 109.414L231.795 110.657C231.795 110.657 233.664 103.82 241.141 104.442C248.618 105.063 248.618 111.9 248.618 111.9" stroke="#26201E" stroke-width="4" stroke-miterlimit="10" stroke-linecap="round"/>
<path d="M317.155 109.414L311.547 110.657C311.547 110.657 309.678 103.82 302.201 104.442C294.725 105.063 294.725 111.9 294.725 111.9" stroke="#26201E" stroke-width="4" stroke-miterlimit="10" stroke-linecap="round"/>
<path d="M255.472 134.212C255.472 134.212 260.394 137.444 274.35 137.444C286.002 137.382 290.986 135.579 290.986 135.579" stroke="white" stroke-width="30" stroke-miterlimit="10" stroke-linecap="round"/>
<path d="M265.441 39.1831C265.441 39.1831 302.824 78.9598 335.847 78.649L338.339 73.9877C338.339 73.9877 329.616 2.51393 269.802 16.1872C209.988 29.8604 233.664 24.2668 233.664 24.2668L265.441 39.1831Z" fill="#26201E"/>
<path d="M267.933 31.7251C267.933 31.7251 264.194 65.9082 206.25 65.2866C206.25 65.2866 204.443 62.1791 206.25 58.45C207.683 55.4668 212.48 52.2971 214.225 48.6301C217.776 41.172 221.203 33.9003 221.203 33.5896C221.203 32.9681 246.749 14.3228 246.749 14.3228L267.933 31.7251Z" fill="#26201E"/>
<path d="M287.871 136.76C287.871 136.76 294.725 136.139 299.086 134.274" stroke="#D3D1D1" stroke-width="2" stroke-miterlimit="10" stroke-linecap="round"/>
<g clip-path="url(#clip0)">
<path d="M105.541 166.493C103.492 161.768 96.4766 163.012 96.2283 168.172C95.9179 173.954 87.5988 174.451 86.6055 168.731C85.7363 163.696 78.5968 163.26 77.1689 168.234C75.5547 173.767 67.2977 172.337 67.6702 166.555C67.9806 161.395 61.1515 159.406 58.6061 163.882C55.7503 168.918 48.0521 165.623 49.7283 160.09C51.2183 155.178 45.01 151.634 41.5334 155.365C37.5601 159.592 30.8551 154.619 33.773 149.583C36.3184 145.107 31.1655 140.257 26.8818 143.117C22.0394 146.288 16.7003 139.946 20.6736 135.719C24.2123 131.989 20.239 126.02 15.4586 127.823C10.0574 129.813 6.27035 122.352 11.1128 119.181C15.3965 116.321 12.9753 109.669 7.82242 110.291C2.11081 110.975 0.124158 102.893 5.58744 100.903C10.4299 99.1624 9.56074 92.0749 4.46995 91.5154C-1.30375 90.8937 -1.30375 82.5006 4.46995 81.8168C9.56074 81.195 10.3678 74.1076 5.52536 72.3668C0.0620755 70.4395 1.98664 62.2952 7.69826 62.9169C12.789 63.4764 15.2103 56.8241 10.9266 54.0264C6.08411 50.8557 9.80907 43.3953 15.2103 45.3847C20.0527 47.1255 23.9019 41.1571 20.3631 37.4269C16.3898 33.2614 21.729 26.7957 26.5714 29.9664C30.8551 32.7641 36.008 27.8526 33.4626 23.4385C30.5447 18.4648 37.2497 13.429 41.223 17.6566C44.7617 21.3868 50.9079 17.8431 49.4179 12.8694C47.7416 7.33625 55.3778 3.97903 58.2957 9.01485C60.8411 13.4911 67.6702 11.3773 67.3598 6.27934C66.9873 0.497467 75.1822 -0.99463 76.8585 4.60073C78.3485 9.51222 85.4259 9.07703 86.2951 4.0412C87.2884 -1.67851 95.6075 -1.18114 95.9179 4.60073C96.2283 9.7609 103.244 10.9421 105.23 6.21717C107.465 0.870491 115.474 3.29515 114.481 8.95268C113.611 13.9885 120.13 16.8484 123.172 12.6829C126.587 8.02012 133.85 12.1856 131.553 17.4701C129.505 22.195 135.216 26.4227 139.19 23.1276C143.597 19.3974 149.682 25.1171 146.267 29.7177C143.225 33.821 147.819 39.292 152.351 36.9917C157.504 34.3805 162.098 41.3436 157.69 45.0739C153.779 48.3689 156.945 54.7725 161.974 53.5291C167.561 52.1613 170.479 59.9948 165.326 62.606C160.732 64.9063 162.409 71.8694 167.561 71.8073C173.335 71.8073 174.328 80.076 168.741 81.4437C163.774 82.625 163.774 89.7746 168.741 90.8937C174.391 92.1993 173.397 100.53 167.623 100.53C162.471 100.53 160.856 107.493 165.451 109.731C170.603 112.28 167.81 120.176 162.16 118.808C157.132 117.627 153.965 124.031 157.939 127.264C162.409 130.994 157.814 137.957 152.662 135.346C148.067 133.045 143.535 138.516 146.577 142.62C150.054 147.22 143.97 153.002 139.562 149.272C135.651 145.977 129.939 150.267 131.988 154.93C134.285 160.214 127.083 164.442 123.607 159.779C120.565 155.676 113.984 158.473 114.915 163.571C115.846 169.415 107.838 171.84 105.541 166.493Z" fill="#26201E"/>
<path d="M169.858 158.971C161.291 153.562 163.029 138.516 166.009 126.953C168.182 118.56 170.603 109.048 167.872 104.26C166.196 101.276 164.209 99.5976 161.788 99.0381C157.628 98.0434 153.344 100.841 153.344 100.841L149.185 94.6861C149.433 94.4996 156.138 90.0855 163.526 91.7641C167.996 92.821 171.659 95.743 174.391 100.53C178.674 107.991 175.943 118.56 173.273 128.818C170.976 137.833 177.122 148.402 181.095 150.888L169.858 158.971Z" fill="#30ABEF"/>
<path d="M171.1 173.27C163.029 171.405 157.256 168.296 153.344 164.069C143.287 153.064 150.116 131.926 153.344 121.792C153.841 120.362 154.214 119.057 154.4 118.249C155.269 115.016 157.069 111.348 158.932 107.431C161.726 101.711 165.885 93.0695 163.216 91.0801C162.905 90.8314 162.471 90.6449 161.664 90.7692C157.442 91.4531 151.109 99.0379 148.688 102.644L142.542 98.4784C142.604 98.3541 144.839 95.1212 147.943 91.764C152.475 86.8525 156.697 84.0548 160.484 83.4331C163.154 82.9979 165.637 83.5574 167.748 85.1117C175.322 90.8314 169.983 101.836 165.699 110.726C163.961 114.27 162.346 117.627 161.664 120.176C161.415 121.171 160.981 122.476 160.484 124.031C157.876 132.175 154.089 145.542 161.167 153.375C165.078 157.665 170.541 164.131 182.089 161.52L186 174.513C181.22 175.57 176.067 174.513 171.1 173.27Z" fill="#3EAFF8"/>
<path d="M130.436 128.942C130.436 136.9 143.101 143.428 151.047 143.428C158.994 143.428 165.513 136.962 165.513 128.942C165.513 120.922 159.056 114.456 151.047 114.456C143.101 114.518 130.436 120.984 130.436 128.942Z" fill="#4D2F25"/>
<path d="M137.389 128.942C137.389 133.729 145.025 137.646 149.806 137.646C154.586 137.646 158.497 133.729 158.497 128.942C158.497 124.155 154.586 120.238 149.806 120.238C145.025 120.238 137.389 124.155 137.389 128.942Z" fill="#26201E"/>
<path d="M45.0721 128.942C45.0721 136.9 32.4072 143.428 24.4606 143.428C16.514 143.428 9.99532 136.962 9.99532 128.942C9.99532 120.922 16.4519 114.456 24.4606 114.456C32.4693 114.456 45.0721 120.984 45.0721 128.942Z" fill="#4D2F25"/>
<path d="M38.1188 128.942C38.1188 133.729 30.4826 137.646 25.7023 137.646C20.9219 137.646 17.0107 133.729 17.0107 128.942C17.0107 124.155 20.9219 120.238 25.7023 120.238C30.4826 120.238 38.1188 124.155 38.1188 128.942Z" fill="#26201E"/>
<path d="M87.9092 177C52.2737 177 23.3431 148.029 23.3431 112.343V98.0433C23.3431 62.3573 52.2737 33.3857 87.9092 33.3857C123.545 33.3857 152.475 62.3573 152.475 98.0433V112.343C152.475 148.029 123.607 177 87.9092 177Z" fill="#4D2F25"/>
<path d="M143.784 86.2309H151.606C146.577 55.5807 119.944 29.6555 87.9092 29.6555V32.1423C55.3158 32.1423 29.7997 52.2235 24.2123 86.2309H32.6555C32.6555 86.2309 35.1388 67.5796 41.3471 67.5796C41.3471 67.5796 77.976 75.6618 133.23 67.5796C138.569 66.7714 142.542 77.527 143.784 86.2309Z" fill="#26201E"/>
<path d="M152.475 104.882H23.3431V84.1169C23.3431 81.1949 25.7023 78.7703 28.6822 78.7703H147.198C150.116 78.7703 152.537 81.1328 152.537 84.1169V104.882H152.475Z" fill="#3EAFF8"/>
<path d="M96.5387 83.7441C96.6629 83.9928 96.9112 83.8685 97.0975 83.9307C99.5187 84.6145 100.822 87.0392 100.077 89.4017C99.2704 91.7642 96.725 92.9454 94.4279 91.9507C93.8071 91.6398 93.4346 91.702 93.0621 92.2615C92.9379 92.448 92.8137 92.5724 92.6275 92.7589C91.8825 93.4428 91.3858 94.0023 92.1308 95.1836C93 96.5513 92.255 98.5408 90.8892 99.4733C89.5234 100.406 87.5367 100.219 86.3571 99.1003C85.1776 97.9191 84.9913 95.9918 85.9225 94.5619C86.1088 94.3132 86.7296 94.0023 86.1709 93.6293C85.6121 93.2563 85.488 92.075 84.3705 92.6346C83.7497 92.9454 83.0667 92.9454 82.4459 92.6346C81.9493 92.3859 81.6388 92.5102 81.3284 92.9454C81.0801 93.2563 80.8318 93.5049 80.5834 93.7536C80.0247 94.3132 79.5901 94.7484 80.0247 95.7431C80.4593 96.9243 79.4039 98.1678 78.1622 98.2921C76.8585 98.4786 75.741 97.546 75.6789 96.2405C75.6168 94.997 76.6101 93.6915 77.7897 93.9401C79.5901 94.3132 80.0868 92.8832 80.9559 92.0128C81.3905 91.6398 80.8939 91.2668 80.7697 90.8938C80.3351 89.4017 81.018 87.9718 82.508 87.4122C83.9359 86.9149 85.488 87.7231 85.9846 89.153C86.233 89.8369 86.233 90.5208 85.8605 91.1425C85.488 91.8263 85.9846 92.1372 86.3571 92.448C86.7296 92.8211 86.9159 93.5671 87.785 93.1941C88.6542 92.8211 89.5854 92.8832 90.3925 93.3184C90.765 93.505 90.9513 93.4428 91.1375 93.1319C91.2617 92.9454 91.3858 92.8211 91.5721 92.6346C92.4412 91.8263 93.1242 91.2046 92.1929 89.7125C90.8892 87.5366 92.3792 84.801 94.8004 84.055C95.0487 83.9928 95.3591 84.055 95.5454 83.8063C95.9179 83.7441 96.2283 83.7441 96.5387 83.7441Z" fill="#B3E4FF"/>
<path d="M43.2096 115.451L67.4219 111.721" stroke="#26201E" stroke-width="12" stroke-miterlimit="10" stroke-linecap="round"/>
<path d="M134.471 115.451L110.259 111.721" stroke="#26201E" stroke-width="12" stroke-miterlimit="10" stroke-linecap="round"/>
<path d="M155.269 101.773C153.407 101.773 151.854 100.219 151.854 98.354V85.9199C151.854 84.0548 153.407 82.5005 155.269 82.5005C157.132 82.5005 158.684 84.0548 158.684 85.9199V98.354C158.684 100.219 157.194 101.773 155.269 101.773Z" fill="#3EAFF8"/>
<path d="M88.53 119.181C89.1508 119.181 99.7049 116.695 99.7049 125.523C99.7049 132.113 95.98 132.859 89.1508 132.859" stroke="#26201E" stroke-width="2.1728" stroke-miterlimit="10" stroke-linecap="round"/>
<path d="M73.6302 151.448C73.6302 151.448 78.5347 154.681 92.4412 154.681C104.051 154.619 109.017 152.816 109.017 152.816" stroke="#26201E" stroke-width="9" stroke-miterlimit="10" stroke-linecap="round"/>
<path d="M129.505 129.129C129.505 129.129 127.642 122.29 120.192 122.912C112.742 123.533 112.742 130.372 112.742 130.372" stroke="#26201E" stroke-width="4" stroke-miterlimit="10" stroke-linecap="round"/>
<path d="M48.7971 129.129C48.7971 129.129 50.6595 122.29 58.1095 122.912C65.5594 123.533 65.5594 130.372 65.5594 130.372" stroke="#26201E" stroke-width="4" stroke-miterlimit="10" stroke-linecap="round"/>
</g>
<defs>
<clipPath id="clip0">
<rect width="186" height="177" fill="white"/>
</clipPath>
</defs>
</svg>
